<svg xmlns="http://www.w3.org/2000/svg" width="24" height="26" viewBox="0 0 24 26" fill="none">
  <g clip-path="url(#clip0_2_264)">
    <path d="M0.5 14.6836V3.04298C0.5 -0.0694366 3.94357 -0.874875 5.85089 0.998407C7.19789 2.32137 8.8937 5.81282 10.8159 5.81282C7.61349 8.64461 0.5 14.6836 0.5 14.6836Z" fill="#8CD1EA"/>
    <path d="M0.500781 16.32C0.500781 16.32 15.1397 3.89588 16.2566 2.79524C18.8838 0.214918 23.756 1.65815 23.756 5.99877V10.1827C23.756 10.1827 20.4868 12.9197 19.7187 13.4846C18.9506 14.0495 17.4106 13.6122 16.9653 12.7302C16.5201 11.8482 16.0043 10.4633 14.1452 10.4633C12.9281 10.4633 12.1154 11.8664 10.8129 14.8039C8.44177 20.1541 7.16156 24.7462 4.08536 24.7462C1.65111 24.7462 0.49707 22.6068 0.49707 21.2839V16.3128L0.500781 16.32Z" fill="#8CD1EA"/>
    <path d="M13.5703 20.3987L23.7563 11.9033V23.1685C23.7563 24.5534 22.9251 26.0003 21.259 26.0003C19.5928 26.0003 18.7839 26.0805 16.936 23.1357C15.7003 21.1713 13.574 20.3987 13.574 20.3987H13.5703Z" fill="#8CD1EA"/>
  </g>
  <defs>
    <clipPath id="clip0_2_264">
      <rect width="24" height="26" fill="white" transform="translate(0.5)"/>
    </clipPath>
  </defs>
</svg>